<svg xmlns="http://www.w3.org/2000/svg" width="289" height="42" viewBox="0 0 289 42">
  <defs>
    <style>
      .cls-1 {
        fill-rule: evenodd;
      }
    </style>
  </defs>
  <path class="cls-1" d="M288.509,24.572a0.64,0.64,0,0,1,.5-0.192,1.1,1.1,0,0,0-.819-0.162c0.053,0.122.106,0.244,0.16,0.365l0.16,0.174ZM277.736,11.306m11.036,14.537a0.932,0.932,0,0,1-.745-0.185L287.7,26.2a2.267,2.267,0,0,0,.969.307m-1.777-.482c0.108-.291.237-0.611-0.26-0.453a3.64,3.64,0,0,0-.546.279C286.287,26.309,286.61,26.058,286.9,26.022ZM45.61,1.268l0.005,0h0Zm-24.166-1.1H22.3A0.674,0.674,0,0,0,21.444.168Zm0.87,0H22.3l0,0ZM288.508,22.429l-1.288-.186a0.128,0.128,0,0,0-.122-0.02h0a3.963,3.963,0,0,0-1.8-.339c-0.887-.185-1.55-1.153-2.559-0.91h0a10.216,10.216,0,0,0-2.062-.362l-0.2-.159h-1.126c-0.289-.071-0.744.1-0.644-0.543a3.424,3.424,0,0,1,1.6.19c0.983-.069,1.967-0.006,2.957.013-0.554-.441-1.27-0.155-1.819-0.565a7.174,7.174,0,0,0-2.081-.634c-1.028-.182-2.123-0.094-2.915-1.067a0.918,0.918,0,0,1-.129.01l-0.347.087a15.559,15.559,0,0,1-2.152-.564,4.428,4.428,0,0,0-1.863-.329q-0.075-.119-0.162-0.011l-0.639-.187h0a11.285,11.285,0,0,0-1.358-.621,0.253,0.253,0,0,1-.162-0.444c0.743-.628.076-0.58-0.237-0.707a0.173,0.173,0,0,0-.026-0.175c0.058-.383.318-0.2,0.49-0.2,0.643-.015,1.286-0.006,2.149-0.006a1.841,1.841,0,0,0-1.216-.524c-0.259-.027-0.708.195-0.717-0.28-0.01-.563.464-0.425,0.8-0.435l6.222-.191h0l0.8,0c0.092-.228.489-0.094,0.462-0.511h-1.574a1.019,1.019,0,0,1-.3-0.216c-0.078-.033-0.158.394-0.241,0.386a33.65,33.65,0,0,0-5.725-.182c-0.088-.005-0.177-0.007-0.266-0.009-0.824-.016-1.648-0.044-2.439.007-0.438.015-.9-0.436-1.195,0.047a0.713,0.713,0,0,0,.04.11l-0.015,0a1.072,1.072,0,0,0-.655-0.247,10.731,10.731,0,0,0-1.32.024l-0.007,0a0.418,0.418,0,0,0-.366.014l-0.1-.04a0.787,0.787,0,0,1-.537-0.242l0.1-.223,0.28-.034c0.379-.024.165-0.629,0.526-0.671l0,0a1.234,1.234,0,0,1,.958-0.185,0.582,0.582,0,0,1,.146-0.012l0.015,0.013h0l0.113,0a0.259,0.259,0,0,0,.419.045c0.315-.389.612-0.181,0.924-0.047a0.9,0.9,0,0,0,.231.067c0.305,0.116.586-.17,0.889-0.068l0.151,0c0.846-.111,1.672.311,2.566,0.136l-0.315-.3c-0.827.072-1.569-.581-2.415-0.354l-0.947-.21a6.116,6.116,0,0,0-1.47.117,0.528,0.528,0,0,1,.494-0.206c0.749,0.011,1.482-.2,2.23-0.228a0.268,0.268,0,0,0,0,.105l0.037,0.023,4.329,0.208c0.136,0.165.356,0.017,0.5,0.165,0.787-.027,1.558.359,2.379,0l-1.43-.349a6.557,6.557,0,0,1-1.607-.174l-1.285-.185-0.967,0h0l-4.658-.719-0.228.009a0.606,0.606,0,0,1-.209-0.065,0.184,0.184,0,0,1-.035-0.023,0.3,0.3,0,0,1-.039-0.01c-0.884-.879-1.874-0.473-2.845-0.289h0c-0.091-.189-0.088-0.334.146-0.353,0.589-.048,1.178-0.093,1.768-0.14h0a2.322,2.322,0,0,0,1.148.175l-0.078.058a2.912,2.912,0,0,1,1,.148,0.933,0.933,0,0,0,.253.028,7.241,7.241,0,0,1,1.26.085,0.8,0.8,0,0,0,.256-0.042,0.533,0.533,0,0,1,.126-0.06,3.22,3.22,0,0,0,1.5-.062l0.321-.005a1.527,1.527,0,0,0,1.143.173h0l2.856,0.179h0a13.766,13.766,0,0,0,2.75.216c0.834-.05.834-0.05,0.952-0.362A12.753,12.753,0,0,1,274.68,8.8a0.545,0.545,0,0,1-.489-0.161l-1.434-.025-0.485,0a0.263,0.263,0,0,0-.133-0.023h0a14.625,14.625,0,0,0-4.044-.329,0.477,0.477,0,0,0-.147-0.024,7.236,7.236,0,0,1-2.582-.173l-2.422-.323a19.526,19.526,0,0,0-3.764-.3,8.936,8.936,0,0,1-2.26-.267,1.567,1.567,0,0,0-1.706.227,0.537,0.537,0,0,0,.022.109l-0.022,0-0.294.021-0.322,0a17.976,17.976,0,0,0-2.361-.353C248.4,7.105,244.6,6.621,240.78,6.264l-2.71-.182c-0.472-.451-0.117-0.549.206-0.476,1.159,0.262,2.3-.154,3.457-0.03a0.832,0.832,0,0,0,.038.13h2.911l-0.009-.263a5.129,5.129,0,0,0-1.931-.09,1.952,1.952,0,0,0-1.295-.348c-0.44-.628-1.09-0.113-1.6-0.364a0.939,0.939,0,0,0-.249.006c-0.4.135-.823,0.063-1.223,0.186a0.458,0.458,0,0,0-.161.172,0.645,0.645,0,0,0-.034-0.08,0.984,0.984,0,0,0-.772-0.15,0.807,0.807,0,0,0-.217.057,0.791,0.791,0,0,1-.715.018,0.741,0.741,0,0,0-.331.044,1.882,1.882,0,0,0-1-.14,14.863,14.863,0,0,0-4.051.027c-1.391.029-2.762-.327-4.152-0.172a20.067,20.067,0,0,1-3.5.153,0.711,0.711,0,0,0-.788.263l-0.008,0,0,0a11.178,11.178,0,0,0-1.5-.255,1.011,1.011,0,0,0-.477.036,1.891,1.891,0,0,1-2.314-.113,0.433,0.433,0,0,0-.312-0.053c-2.039.118-4.072-.163-6.113-0.09a13.2,13.2,0,0,0-2.384-.058,12.209,12.209,0,0,1-3.707-.035c-1.184-.117-2.376-0.085-3.556-0.227a2.85,2.85,0,0,0-1.038.053,12.864,12.864,0,0,1-5.94-.038,7.524,7.524,0,0,0-2.14-.215,16.618,16.618,0,0,1-3.509-.14,0.765,0.765,0,0,0-.688.168,1.205,1.205,0,0,1-1.424.1l-0.272-.019a19.589,19.589,0,0,0-3.5-.255,6.468,6.468,0,0,0-1.741-.179,15.142,15.142,0,0,1-3.481.187c-1.484-.035-2.967-0.311-4.458-0.2-1.01.075-2.025,0.127-3.03,0.136-1.622.013-3.247-.074-4.872-0.035a0.455,0.455,0,0,0-.252.139l-5.173-.147a10.7,10.7,0,0,1-2.757,0,0.473,0.473,0,0,1-.145-0.022,2.453,2.453,0,0,0-1.536.076,0.31,0.31,0,0,0-.109.092,2.537,2.537,0,0,0-.586-0.115c-1.827.03-3.655,0.075-5.483,0.116A0.285,0.285,0,0,0,150,3.82a4.772,4.772,0,0,1-1.5-.029l-3.333-.022-2.893,0a11.9,11.9,0,0,1-2.23.149h0a1.033,1.033,0,0,0-.7-0.123c-2,.044-4.007.12-6.011,0.132-2.52.016-26.645,0.014-29.165,0.011a8.236,8.236,0,0,0-1.891-.084,2.258,2.258,0,0,0-.628.082h-0.908a3.644,3.644,0,0,0-1.764.02L95.6,3.93c-1.124-.033-2.246.168-3.37,0.037a5.472,5.472,0,0,1-1.612,0,1.7,1.7,0,0,1-.858.066,51.536,51.536,0,0,0-6.1.109h0l-0.034.037,0.034,0.037h0A1.205,1.205,0,0,0,82.668,4a59.944,59.944,0,0,1-7.047.071c-4.43-.022-8.859-0.3-13.288-0.479l-1.61.015h0l-1.6-.183a0.292,0.292,0,0,1-.185-0.2,2.335,2.335,0,0,0-.893.078,2.658,2.658,0,0,1-1.593-.319,1.33,1.33,0,0,0-.821-0.192,1.648,1.648,0,0,0-.56.062,0.563,0.563,0,0,1-.1.05,0.186,0.186,0,0,1,.186-0.1,0.3,0.3,0,0,1-.067-0.106c0.028-.012.057-0.021,0.085-0.032a4.9,4.9,0,0,1,1.638-.143,4.385,4.385,0,0,1,.443.1,7.386,7.386,0,0,0,1.7.424l2.094-.138h0a0.569,0.569,0,0,1,.339-0.125,2.248,2.248,0,0,0-.338.125l0.8-.049h0s0,0,0,0l0.022,0a4.54,4.54,0,0,0,2.084-.137h0L64.423,2.7l0.8-.019,0.16,0.008a88.271,88.271,0,0,0,11.7-.38h0l-0.515-.259a0.252,0.252,0,0,1-.113-0.057C73.8,1.967,71.135,1.93,68.471,1.926c-2.688,0-5.376.026-8.064,0.041L58,1.8a0.168,0.168,0,0,0-.127-0.025,1.368,1.368,0,0,0-1.525,0,0.121,0.121,0,0,0-.118.023,2.377,2.377,0,0,0-1.61-.193,0.382,0.382,0,0,0-.484-0.011l-0.29,0A0.733,0.733,0,0,0,53,1.6h0l0,0a6.183,6.183,0,0,0-1.145-.123,3.583,3.583,0,0,0-.773-0.039h-0.4a14.313,14.313,0,0,1-1.573-.009,10.3,10.3,0,0,0-1.558-.061c-0.189,0-.378-0.011-0.567-0.006a0.868,0.868,0,0,0-.091.021,0.254,0.254,0,0,0-.022-0.028c-0.408-.218-0.849.172-1.255-0.08a21.6,21.6,0,0,0-2.69-.183C41.2,0.8,39.423,1.206,37.7.733A0.471,0.471,0,0,0,37.262.9C34.7,1.04,32.138.339,29.578,0.927l-0.046.124c-0.852.018-1.7,0.06-2.555,0.049a27.053,27.053,0,0,1-5.307-.55L20.093,0.4c-0.866.23-1.787-.154-2.633,0.293h0a15.859,15.859,0,0,0-3.173.378A3.829,3.829,0,0,1,12.845.892c-0.234-.261-0.281-0.008-0.344.164a1.057,1.057,0,0,1-.448.745l-0.193.333h0c-0.218.02-.46,0-0.456,0.366l1.279,0.184c0.274,0.145.8-.064,0.827,0.294,0.042,0.669.449,0.516,0.763,0.62,0.168,0.286.227,0.525-.159,0.661s-0.223.294,0,.437a0.839,0.839,0,0,0,.642.243,3.261,3.261,0,0,1,2.017.2,2.441,2.441,0,0,0-1.058.233h0a5.321,5.321,0,0,0-1.753.194l-0.055.016a0.856,0.856,0,0,0-.018-0.1,1.156,1.156,0,0,0-.725.089h0a1.461,1.461,0,0,0-.976.156h0a0.539,0.539,0,0,1-.31.029c-0.381-.321-0.6-0.267-0.991.123a1.973,1.973,0,0,1-1.3.771A1.3,1.3,0,0,0,8.329,7.862c-1.166.459-1.358,0.775-1.135,1.977a0.643,0.643,0,0,1-.189.54H7a1.976,1.976,0,0,1-1.714.37,2.675,2.675,0,0,0-1.436-.176L3.84,10.567c-0.264-.179-0.606-0.308-0.757.034a0.729,0.729,0,0,0,.391.942c0.283,0.155.57,0.3,0.856,0.448l0.288,0.066a2.012,2.012,0,0,1,.261.728c0.032,0.2.544,0.266,0.187,0.578a0.48,0.48,0,0,0-.087-0.075,0.533,0.533,0,0,0-.238-0.058,0.765,0.765,0,0,0-.113.018l-0.005,0-0.455.015c-0.144-.082-0.307-0.116-0.454-0.188A0.733,0.733,0,0,0,3.5,13.049a2.144,2.144,0,0,1-.849-0.1,1.1,1.1,0,0,0-.215-0.031,0.637,0.637,0,0,0-.52.135c-0.273.1-.69-0.175-0.791,0.377a1.588,1.588,0,0,0,.631.334l1.285-.143L4,14.022a1.713,1.713,0,0,1,.636.685,1.9,1.9,0,0,1-1.614.033c-0.733-.072-1.465-0.157-2.2-0.207-0.25-.017-0.615-0.22-0.668.321,0.622,0.207,1.1.918,1.843,0.685a2.766,2.766,0,0,1,1.65.085,0.444,0.444,0,0,1,.028.164,0.692,0.692,0,0,0,.6.745c0.066,0.629-.324.689-0.736,0.782-0.385.087-.915,0.052-0.812,0.79a0.486,0.486,0,0,1,.337.43c0.1,0.3.218,0.126,0.316-.026a0.921,0.921,0,0,1,.855.743,3.558,3.558,0,0,0-.941.268h0a1.294,1.294,0,0,1-.707.253c-0.278.158-.708,0.256-0.2,0.705a0.7,0.7,0,0,1,0,.324h0l-0.341-.047c-0.16.249-.928,0.052-0.452,0.768,0.2-.158.281-0.566,0.642-0.356,0.485,0.745,1.288.6,1.944,0.87a1.4,1.4,0,0,1,.284.463,1.734,1.734,0,0,0-.629.125c-0.477-.6-1.118-0.217-1.694-0.426,0.218,0.757.218,0.757,1.25,1.279l0.065,0,0.062,0.02a0.256,0.256,0,0,0,.329.056,0.362,0.362,0,0,0,.024-0.07,0.556,0.556,0,0,1,.123.9,0.172,0.172,0,0,0-.178-0.01,2.453,2.453,0,0,1-1.394.728h0c-0.3-.7-0.621-0.816-1.031-0.332a0.7,0.7,0,0,1-.58.2,0.544,0.544,0,0,0-.039.144h0c-0.191.077-.683,0.046-0.492,0.278C0.541,25.7,0,26.5.791,26.394l0.058,0.018,0.06-.008h0a2.491,2.491,0,0,1,1.16.866,2.823,2.823,0,0,1-1.269-.2c-0.617.08-.315,0.459-0.2,0.776,0,0.377-.252.295-0.454,0.3A0.4,0.4,0,0,1,0,28.2l0.17,0.287a5.046,5.046,0,0,1,.921.421h0L1.268,29.07c0.488,0.158.3,0.927,0.813,1.093a0.612,0.612,0,0,1,.323.864c-0.261.657,0.14,0.546,0.459,0.559a0.249,0.249,0,0,1,.03-0.022l0,0a0.2,0.2,0,0,1-.028.019l0,0h0a0.522,0.522,0,0,0,.027.157c0.512,0.148.807,0.811,1.412,0.74l0.349,0.877a1.683,1.683,0,0,1,1.206.711A3.07,3.07,0,0,1,4,33.558a0.74,0.74,0,0,0-.152-0.012l-0.673-.315L2.077,33l-0.289.17,0.579,0.223a1.21,1.21,0,0,0,.506.343l0.657,0.345a3.018,3.018,0,0,1,1.265.394l1.13,0.357c0.684-.521.836-0.491,1.121,0.393-0.037.005-.074,0.013-0.111,0.018a1.465,1.465,0,0,0-1.007-.254,0.651,0.651,0,0,1-.8.04c-0.143-.065-0.409-0.283-0.453.151l-0.664.2h0a1.03,1.03,0,0,1-.156-0.195,0.867,0.867,0,0,0-.17-0.17,2.94,2.94,0,0,0-.551-0.256c-0.363-.157-0.7.276-1.062,0.067l-0.456-.107c-0.193-.044-0.426-0.223-0.561.04s0.19,0.361.264,0.561l3.62,1.145,2.13,0.653,0.793,0.034,0.066,0.024,0.069-.012h0c0.663,0.335,1.412.072,2.081,0.368l0.518,0.334c0.3,0.111.565,0.356,0.855,0.448a5.105,5.105,0,0,1-.874.224L9.805,38.38h0a3.974,3.974,0,0,0-1.791-.534c-0.766.17-1.468-.535-2.357-0.242a11.856,11.856,0,0,1,1.217.639,7.032,7.032,0,0,0,2.559.493,0.661,0.661,0,0,0,.116-0.043,0.852,0.852,0,0,0,.392.073,1.436,1.436,0,0,1-1.228.151c-0.724-.1-1.434-0.322-2.15-0.493H6.081A6.793,6.793,0,0,1,3.2,37.358c-0.268-.193-0.706-0.594-0.941.128l0.628,0.362a5.955,5.955,0,0,0,1.686.856,1.509,1.509,0,0,1,.806.1,0.521,0.521,0,0,0,.519-0.064,0.425,0.425,0,0,0,.071.152,7.218,7.218,0,0,0,2.524.668,0.744,0.744,0,0,0,.583-0.176A0.326,0.326,0,0,1,9.147,39.3H9.21a0.5,0.5,0,0,0-.066.177,1.474,1.474,0,0,0,1.263.241c0.1-.032.2-0.06,0.3-0.088a1.478,1.478,0,0,0,.933.255,21.114,21.114,0,0,1,3.271.144h0c1.185,0.3,2.407.091,3.6,0.317a0.481,0.481,0,0,1-.068-0.023l0.182,0.042a0.574,0.574,0,0,1-.114-0.019c0.038,0.007.077,0.011,0.116,0.02h0l0.483,0.01c0.261-.344.549,0.01,0.821-0.041l0.621,0.018h0a5.534,5.534,0,0,0,1.772.191l0.137,0c0.319,0.112.651,0.168,0.974,0.26a24.749,24.749,0,0,0,3.4-.068,0.819,0.819,0,0,0,.134-0.189s0.01,0.007.015,0.011a5.163,5.163,0,0,0,1.639-.015c0.856,0,1.8.749,2.579-.284a0.737,0.737,0,0,1,.538.027,0.461,0.461,0,0,0,.441.1,4.267,4.267,0,0,1,2.5-.392l0.2,0.038a1.165,1.165,0,0,0,.731.168,0.726,0.726,0,0,0,.222-0.011,1.071,1.071,0,0,1-.165-0.165,0.875,0.875,0,0,1,.629-0.209h0l0.794,0a1.407,1.407,0,0,1,.168.11h0.811a0.386,0.386,0,0,0,.286,0h0.336c0.174,0,.348,0,0.521,0a1.593,1.593,0,0,0,.661-0.095l0.1-.078a2.362,2.362,0,0,0,1.644.085c0.063,0,.052.095-0.029,0.083-0.1-.015.008,0.116-0.067,0.038a1.5,1.5,0,0,1-.84.163,1.732,1.732,0,0,0-1.159.075,0.264,0.264,0,0,1-.016.021c0-.007-0.007-0.012-0.01-0.018l-1.742.17a11.3,11.3,0,0,0-1.112.392h0q-0.008.169-.015,0.339l3.694-.179q0.258,0.188.364-.136c-0.008-.019-0.017-0.033-0.026-0.05a18.081,18.081,0,0,0,3.2-.009,20.993,20.993,0,0,1,3.539-.346,2.869,2.869,0,0,1,1.486-.042,3.5,3.5,0,0,0,1.885.19,3.163,3.163,0,0,1,.629-0.1c0.262-.093.688-0.027,0.649-0.479s-0.419-.346-0.709-0.324a1.907,1.907,0,0,1-1.353.318,0.4,0.4,0,0,0,.333-0.422,0.589,0.589,0,0,0-.7-0.191c-0.439.035-.875,0.127-1.316,0.135a0.95,0.95,0,0,0-.431.2,2.093,2.093,0,0,1-1.733.116,0.928,0.928,0,0,1-1,.063h0c-0.338-.095-0.706-0.274-0.806.338-0.265.034-.532,0.051-0.793,0.106-0.231.049-.455,0.065-0.519-0.237a0.434,0.434,0,0,1,.407-0.544c0.894-.144,1.793-0.254,2.689-0.377h0l1.745-.026h0.818a0.643,0.643,0,0,0,.18-0.144,0.534,0.534,0,0,0-.371-0.589,22.814,22.814,0,0,1-2.841-.058c-0.556.193-1.15,0.122-1.7,0.315a2.4,2.4,0,0,1-1.533.159c-0.3.04-.611,0.063-0.917,0.086-0.4.22-.864,0.054-1.255,0.295l-0.083.112-0.008.01a0.574,0.574,0,0,0-.029-0.071,4.716,4.716,0,0,0-1.154-.351,5.046,5.046,0,0,0-1.18-.007,4.971,4.971,0,0,1-2.033.078,0.754,0.754,0,0,1-.079.093,0.693,0.693,0,0,1-.194.114,2.6,2.6,0,0,0-1.815-.473c-0.083-.047-0.166-0.094-0.249-0.144a1.263,1.263,0,0,0-.446-0.074,0.975,0.975,0,0,1-1.017-.422h0.013a0.343,0.343,0,0,0,.559-0.045,1.365,1.365,0,0,0,.187.093c0.316,0.062.636,0.013,0.951,0.047,1.572,0.166,3.1-.365,4.661-0.366,0.3-.012.6-0.03,0.9-0.051,1.248,0.116,2.457.568,3.714,0.6,0.09,0,.178,0,0.268-0.009a12.046,12.046,0,0,0,1.936-.066A0.733,0.733,0,0,0,45.315,38a0.258,0.258,0,0,0,.169.135c0.063-.018.125-0.029,0.188-0.041a10.351,10.351,0,0,0,1.875.127c0.579,0.09,1.164.138,1.737,0.275H49.3a0.276,0.276,0,0,0,.08.326,0.592,0.592,0,0,0,.9-0.062l0.012-.028a0.345,0.345,0,0,0,.459-0.269,1.266,1.266,0,0,0,.437.026c0.033,0,.064,0,0.1.006,0.1,0.427.313,0.454,1.1,0.293a1.4,1.4,0,0,1,.467-0.112,0.923,0.923,0,0,0,.2-0.012l0.306-.011a0.269,0.269,0,0,0,.018.024,1.377,1.377,0,0,0,1,.158,15.571,15.571,0,0,1,3.216.261,5,5,0,0,1,1.068-.027,0.532,0.532,0,0,0-.011.243c-0.323.34-.815-0.024-1.131,0.341a12.966,12.966,0,0,0,2.724-.018,0.925,0.925,0,0,1,.723-0.157,1.8,1.8,0,0,0,.646.159,2.363,2.363,0,0,0,1.314-.133c0.544,0.052,1.089.1,1.636,0.121a9.494,9.494,0,0,1,1.828.027,15.536,15.536,0,0,0,1.838.094,12.22,12.22,0,0,1,2.469.081l2.7,0.21c0.014,0.046.026,0.092,0.036,0.139h0a0.52,0.52,0,0,0,.636.024l0.476,0,1.264,0.025a0.235,0.235,0,0,0,.043-0.092l0.01,0-0.053.088,3.561,0.324h0.161c1.318,0.112,2.634.29,3.953,0.313a11.993,11.993,0,0,1,2.977.208L88.675,41.1h0c0.571,0.152.968,0.874,1.643,0.665a7.042,7.042,0,0,1,3.356.041q0,0.09,0,.179l0.15,0.013,2.4-.156,0.017-.047,0.008,0,0.168-.027a1.04,1.04,0,0,0-.272-0.239c-0.328-.326-0.807-0.061-1.173-0.237a1.276,1.276,0,0,0-.854.084c-0.034.024-.068,0.047-0.1,0.069a1.042,1.042,0,0,0-.752-0.3A18.828,18.828,0,0,0,90.5,41.06a0.936,0.936,0,0,0-.817.173,0.556,0.556,0,0,0-.051-0.435,7.586,7.586,0,0,0,1.143-.06,0.79,0.79,0,0,0,.984.013h0l0.628-.029a0.318,0.318,0,0,0-.261-0.377,4.646,4.646,0,0,0-2.618.193l-0.184.037-4.643-.393h0c0.112-.467.876-0.242,0.787-0.922-0.091-.025-0.181-0.048-0.271-0.07,0.613,0.013,1.193.2,1.8,0.266a3.814,3.814,0,0,0,3.167-.715c0.112-.182.235-0.336,0.459-0.229a0.616,0.616,0,0,0,.2-0.009l0.006,0a0.52,0.52,0,0,0,.308.233,0.694,0.694,0,0,0,.242.016c0.785-.171,1.588-0.051,2.378-0.279a6.136,6.136,0,0,1,3.153-.233,1.786,1.786,0,0,0,1.544-.351,0.949,0.949,0,0,1,.078.116,0.768,0.768,0,0,0,.559.1L99.1,38.1a0.594,0.594,0,0,0,.195.489,0.135,0.135,0,0,0,.164,0c0-.015.012-0.025,0.016-0.039a2.528,2.528,0,0,0,.12.225,2.1,2.1,0,0,0,1.012.2,6.592,6.592,0,0,1,1.506.029,10.473,10.473,0,0,0,2.591.333c1.637-.282,24.891-0.066,26.534-0.138a2.14,2.14,0,0,0,1.17-.15,0.269,0.269,0,0,0,.069-0.1c0.047,0.02.094,0.037,0.141,0.059,1.619-.05,3.241.089,4.862-0.042a1.328,1.328,0,0,0,.479-0.065l1.087,0h0l1.3,0.019,1.123-.01,2.237,0.008h0a1.531,1.531,0,0,1,.987.042,3.837,3.837,0,0,1,1.432,0h0a1.12,1.12,0,0,0,1.3-.011,7.824,7.824,0,0,0,3.509-.09,0.639,0.639,0,0,0,.161-0.275l-1.76,0a0.611,0.611,0,0,0-.151,0h0l-1.772-.016-1.32,0a0.555,0.555,0,0,0-.265-0.231,4.042,4.042,0,0,0-2.095.131,0.521,0.521,0,0,0-.047.079,0.38,0.38,0,0,0-.6,0l-0.005,0s0-.01,0-0.014h0.012l-0.016-.014a0.3,0.3,0,0,0-.093-0.116c-0.02-.009-0.04-0.013-0.06-0.021l-0.007-.006H142.9a5.4,5.4,0,0,0-1.451-.089c-0.122,0-.244,0-0.366,0a3.547,3.547,0,0,0-.47-0.038,0.529,0.529,0,0,0-.3.191l-0.054.109a0.889,0.889,0,0,0-.239-0.014,0.765,0.765,0,0,0-.7.023,0.582,0.582,0,0,1-.388-0.419A0.984,0.984,0,0,1,139,38.047a0.579,0.579,0,0,0-.026-0.368,0.374,0.374,0,0,0-.407-0.172,0.711,0.711,0,0,0-.821.3c-0.445-.724-1.094-0.32-1.676-0.277a1.56,1.56,0,0,0-1-.226,1.429,1.429,0,0,1-.994.01,2.813,2.813,0,0,0,1.968-.443,0.757,0.757,0,0,0,.123.088,1.054,1.054,0,0,0,.728.026,0.488,0.488,0,0,1,.181-0.1l0.076,0.072c0.142,0,.288.02,0.429,0.01a0.8,0.8,0,0,0,.4.092A0.717,0.717,0,0,0,138.193,37a0.787,0.787,0,0,0,.12-0.075,2.523,2.523,0,0,0,.259.032A0.241,0.241,0,0,0,139,36.912a0.461,0.461,0,0,0,.238.22c0.361,0.072.705-.156,1.066-0.075a2.463,2.463,0,0,1,.356.019,2.151,2.151,0,0,0,1.074.14,0.818,0.818,0,0,0,.242-0.04,3.821,3.821,0,0,1,1.572-.1,0.843,0.843,0,0,0,.462-0.129,0.411,0.411,0,0,0,.2-0.186l0.466,0.028h0c0.326,0.322.7,0.879,1.062,0.774,1.266-.37,2.517.16,3.764-0.064h0c0.051,0.005.1,0.009,0.153,0.011,0.465,0.373.8-.282,1.256-0.18a10.574,10.574,0,0,0,2.017.126,0.976,0.976,0,0,0,1.142-.394,0.423,0.423,0,0,0,0-.1l0.254-.006v0l-0.251.889c0.56-.558,1.077.124,1.53-0.343h0l0.8-.008a3.379,3.379,0,0,0,1.606.188h0a3.788,3.788,0,0,0,1.212.19,0.335,0.335,0,0,0,.305.017c0.021-.009.042-0.011,0.063-0.019,0.239-.006.479-0.017,0.718-0.024a8.874,8.874,0,0,0,.96.276c0.514-.13,1.046-0.141,1.562-0.266a2.513,2.513,0,0,1,1.249.133,0.7,0.7,0,0,1,.707-0.306,59.012,59.012,0,0,0,7.03-.011,0.473,0.473,0,0,0,.426.091,3.524,3.524,0,0,0,1.245-.055s0.01,0,.015,0c0.04,0.076.077,0.154,0.116,0.233a4.759,4.759,0,0,0,3.2-.056l0.8-.026a0.6,0.6,0,0,0,.847.044,1.09,1.09,0,0,1,.742-0.134,3.075,3.075,0,0,1,1.493.106,1.894,1.894,0,0,0,1.762.14,0.757,0.757,0,0,1,.081-0.251,0.127,0.127,0,0,1,.056.089q0.079,0.009.159,0.011h0a3.2,3.2,0,0,0,1.95.147,22,22,0,0,1,2.628.093,4.747,4.747,0,0,0,2.022-.231,0.465,0.465,0,0,0-.34.414c0.033,0.295.277,0.178,0.439,0.2a4.263,4.263,0,0,0,.458,0,0.13,0.13,0,0,0,.07.1h0a0.745,0.745,0,0,0,.04.141l-0.529.056a0.962,0.962,0,0,0,1.137-.027,0.464,0.464,0,0,1,.145-0.013c0.012-.051.027-0.1,0.043-0.15h0l0.578,0a3.059,3.059,0,0,0,1.472.131h0.111c0,0.013.009,0.023,0.013,0.036a0.176,0.176,0,0,0,.2-0.01c0.007,0.027.011,0.052,0.021,0.082a5.2,5.2,0,0,0,1.168.342,2.407,2.407,0,0,0,.847-0.033,27.287,27.287,0,0,1,5.164-.27c1.942,0.032,3.884.032,5.824-.116l0.16,0c0.724-.425,1.559.054,2.454-0.365v0a19.308,19.308,0,0,0-2.613-.165h0c0-.061,0-0.121,0-0.182l0,0a0.254,0.254,0,0,1,.017-0.052,2,2,0,0,1-.268.019,1.688,1.688,0,0,0-.389.213c-1.872.175-3.749,0.148-5.625,0.177a0.591,0.591,0,0,1-.666.163c-1.207-.518-2.445-0.058-3.661-0.186a0.918,0.918,0,0,1-.177-0.322,9.056,9.056,0,0,1-1.723.034,0.346,0.346,0,0,0,0-.079c0.425-.338.987,0.042,1.41-0.306h0l0.8-.007,0.473-.009a1.074,1.074,0,0,0,.846.165c0.9,0.019,1.8.02,2.7,0.029a4.173,4.173,0,0,0,1.45-.186h0l4.974-.191a0.5,0.5,0,0,1,.473-0.346,5.209,5.209,0,0,0,2.275-.361h0.443a0.814,0.814,0,0,0,.824.11c0.42-.143.108-0.308-0.025-0.454a7.548,7.548,0,0,0-2.735.13,0.2,0.2,0,0,0-.132.019,12.257,12.257,0,0,0-2.412-.011h0a1.907,1.907,0,0,0-.919-0.142,1.463,1.463,0,0,1-.832.206c-1.127-.1-2.257-0.154-3.386-0.226a1.2,1.2,0,0,0-1.133.163l-0.036.018a0.152,0.152,0,0,1,0-.021,18.6,18.6,0,0,0-3.621-.04c-1.059.085-2.168,0.308-3.256,0.464-0.37.053-.743,0.074-1.114,0.11l-5.146-.159a0.378,0.378,0,0,1-.378.08c-0.06-.017-0.12-0.026-0.18-0.041a0.808,0.808,0,0,0-.086.069,0.049,0.049,0,0,0-.027.069,0.289,0.289,0,0,0-.109-0.017c-0.023,0-.045,0-0.067,0a0.936,0.936,0,0,0,.03-0.211,7.8,7.8,0,0,0-3.064-.333,45.337,45.337,0,0,1-6.537-.265,3.658,3.658,0,0,0-2.354.285,0.6,0.6,0,0,0-.107.183,0.29,0.29,0,0,0-.138-0.008,2.015,2.015,0,0,0-1.008-.03,6.38,6.38,0,0,1-3.033-.124,0.826,0.826,0,0,0-.795-0.283,16.229,16.229,0,0,0-1.98.188,41.387,41.387,0,0,0-5.385-.172,0.944,0.944,0,0,0-.381.064,0.544,0.544,0,0,1-.071.09,2.921,2.921,0,0,0-1.814.093h0l-0.8.013h0l-0.008,0h0c-0.8-.382-1.6.141-2.4-0.019a0.2,0.2,0,0,1-.18.1l0.18-.1-1.127.018a0.344,0.344,0,0,0-.135-0.032c-0.016-.044-0.032-0.088-0.049-0.132l-1.262-.011-0.31-.027c-0.484-.245-0.933.147-1.389,0.111a9.022,9.022,0,0,0-3.277.074h0l0.006,0c-0.959.166-1.832-.522-2.8-0.356-0.156.027-.143-0.141-0.116-0.28a0.217,0.217,0,0,0,.162-0.079,1.284,1.284,0,0,1,1.1-.7c0,0.007,0,.012,0,0.019a0.5,0.5,0,0,0,.194.177,7.4,7.4,0,0,0,1.085.07,0.557,0.557,0,0,0-.111.1,0.962,0.962,0,0,0,.817-0.168H147.71a2.916,2.916,0,0,0,.991-0.391c0.006,0,.01-0.011.016-0.015a1.326,1.326,0,0,0,.031.147,0.585,0.585,0,0,0,.676.026,0.428,0.428,0,0,1,.068-0.163l1.039,0.009a0.831,0.831,0,0,0,.061.084,0.5,0.5,0,0,0,.327.1c0.045-.021.08-0.041,0.122-0.061a0.947,0.947,0,0,0,.832.246c0.781-.117,1.566-0.057,2.343-0.158a1.447,1.447,0,0,1,.234-0.059,2.655,2.655,0,0,0,1.99-.056,0.729,0.729,0,0,0,.363.062c1.759-.109,3.519-0.046,5.279-0.075a1.935,1.935,0,0,0,1.474-.353,0.6,0.6,0,0,0,.12.073,4.075,4.075,0,0,0,1-.1,2.966,2.966,0,0,1,.5-0.209,2.78,2.78,0,0,1,2.166-.209,12.674,12.674,0,0,0,3.359.343l0.068,0.115a0.361,0.361,0,0,1-.024.12,4.186,4.186,0,0,1,1.415-.119l0.023,0a0.474,0.474,0,0,1-.035-0.033,0.22,0.22,0,0,1,.012-0.255,10.62,10.62,0,0,1,1.72-.139c0.443,0.032.255-.28,0.307-0.458,0-.009-0.007-0.017-0.01-0.027l0.018,0-0.008-.007a0.249,0.249,0,0,1,.023-0.036c0,0.012,0,.023,0,0.035,0.662-.056,1.3.365,1.973,0.105a1.654,1.654,0,0,0,.142.242,6.189,6.189,0,0,0,1.743-.173,0.869,0.869,0,0,1,.114-0.059,0.767,0.767,0,0,0,.185.091,5.969,5.969,0,0,0,2.651.162,3.565,3.565,0,0,1,1.394.068,0.6,0.6,0,0,0,.222-0.05c0.268-.364.535-0.277,0.8,0,0.551,0.285,1.086-.1,1.631-0.052a0.977,0.977,0,0,0,.318-0.222l0.121,0.008a0.262,0.262,0,0,0,.106-0.268c0.044-.042.088-0.082,0.135-0.121a1.14,1.14,0,0,1,.336-0.12,0.32,0.32,0,0,0,.369-0.2c0.009,0,.018,0,0.026-0.008a0.961,0.961,0,0,0,.142-0.1,1.949,1.949,0,0,0,1.779.076,1.517,1.517,0,0,1,1.018-.117,13.556,13.556,0,0,0,3.644.308l5.625-.2,0.479,0.036a1.554,1.554,0,0,1,.8.15l0.967-.157,0.06,0.022,0.063-.007a1.187,1.187,0,0,0,.854.153c0.531-.038,1.063-0.124,1.594-0.111,0.482,0.012,1.243.073,1.172,0.657-0.08.665,0.183,0.463,0.428,0.465a6.648,6.648,0,0,0,.774-0.076,0.223,0.223,0,0,0,.031.154h0a0.941,0.941,0,0,0,1.3.014,40.722,40.722,0,0,1,4.949-.261c1.681-.005,3.321-0.552,5.067-0.157,1.907,0.431,3.92.073,5.887,0.019,0.582-.006,1.152-0.149,1.739-0.159a17.871,17.871,0,0,0,3.842-.313,4.31,4.31,0,0,0,2.324.386c1.053-.122,2.139-0.61,3.184.078a5.081,5.081,0,0,0,2.59-.292l-0.05-.082,0.009-.005,0.041,0.087h0a0.835,0.835,0,0,1,.625.117c1.393,0.075,2.786-.2,4.177.01a2.343,2.343,0,0,0,1.119-.167H245.3l0.006-.267c-0.576-.313-1.213.008-1.807-0.114l-0.413-.01a0.645,0.645,0,0,0-.04-0.134c-1.681-.435-3.405-0.225-5.1-0.418a0.466,0.466,0,0,0-.368.16,0.387,0.387,0,0,0-.021.078c-2.564-.138-5.13-0.237-7.7-0.186l-0.161-.014a0.832,0.832,0,0,0-.647-0.007h0a0.119,0.119,0,0,0-.115-0.006,6.29,6.29,0,0,0-1.978-.176h-0.438a0.718,0.718,0,0,0-.852,0h0l0.007-.009h0a44.311,44.311,0,0,0-4.654-.173,2.988,2.988,0,0,0-1.653-.016c-2.341-.085-4.681-0.228-7.025-0.142a0.9,0.9,0,0,0,.758.172,28.8,28.8,0,0,1,6.458.452,0.424,0.424,0,0,0,.508-0.114,0.76,0.76,0,0,1,.953-0.16l0.1,0a1.666,1.666,0,0,0-.462.518,0.139,0.139,0,0,0,0,.02l-0.278,0h0a1.832,1.832,0,0,0-.98.138c-0.518.3-.982-0.349-1.432,0.044-0.022,0-.043-0.008-0.065-0.012s-0.026-.013-0.038-0.022H217.77a0.989,0.989,0,0,0-.513-0.042c-0.047.013-.094,0.02-0.141,0.03-1.114-.006-2.229.051-3.343,0.067-0.865-.025-1.745-0.1-2.617-0.152a0.386,0.386,0,0,0-.27.037,1.224,1.224,0,0,0-.68.068,0.462,0.462,0,0,1-.219.117,1.008,1.008,0,0,0-1.153-.283c-0.36.154-.116,0.431-0.154,0.624-0.218.041-.446,0-0.666,0.018-0.076,0-.151,0-0.227.008a1.057,1.057,0,0,0-.262.048c0-.109-0.009-0.218-0.013-0.328h0c0-.06,0-0.119,0-0.179,0.207,0.069.328,0.413,0.6,0.244a0.245,0.245,0,0,0,.035-0.214,0.439,0.439,0,0,0-.648-0.239,0.505,0.505,0,0,1-.151.027q-2.147-.08-4.294-0.161a3.164,3.164,0,0,1-1.329-.019l-0.806,0h-1.6c-0.214-.259-0.43.028-0.645,0h0c-1.42-.023-2.845-0.471-4.257-0.034-0.488.151-.942-0.338-1.363-0.038a1.314,1.314,0,0,1-1.775-.282,0.547,0.547,0,0,0-.526-0.308,0.38,0.38,0,0,1-.277-0.586l0.306-.157c0.018-.05.037-0.1,0.055-0.149a0.439,0.439,0,0,0-.189-0.234,7.562,7.562,0,0,0-1.737-.088c-1.276,0-2.551-.007-3.827.005a0.9,0.9,0,0,0-.85.246l-0.014,0a0.247,0.247,0,0,0-.035-0.077,2.981,2.981,0,0,0-1.789-.113l-0.125.042a24.833,24.833,0,0,1-5.332-.173,0.163,0.163,0,0,0-.286-0.019l-2.525-.025a0.243,0.243,0,0,0-.237,0c-0.656.011-1.312,0.038-1.968,0.028a3.1,3.1,0,0,1-1.784-.161,0.5,0.5,0,0,0,.1-0.06c0.546-.475,1.209-0.113,1.792-0.318a0.592,0.592,0,0,0,.167-0.141,0.35,0.35,0,0,0,.111.126,2.189,2.189,0,0,0,.944.089,1.073,1.073,0,0,0,.274-0.04,2.14,2.14,0,0,1,.947-0.128c1.256,0,2.512.01,3.768-.01a0.81,0.81,0,0,0,.742-0.176l0.044,0.005h0.127a0.39,0.39,0,0,0,.069.162,0.566,0.566,0,0,0,.376.126,2.422,2.422,0,0,1,1.015-.092,5.48,5.48,0,0,0,2.326-.222c1.276-.09,2.45-0.885,3.769-0.677a1.191,1.191,0,0,1,.892-0.184c0.822,0.111,1.624-.286,2.453-0.121a0.362,0.362,0,0,0,.4-0.283c0.02,0.021.041,0.037,0.06,0.06a12.518,12.518,0,0,0,4.55.169,0.664,0.664,0,0,0,.286.141,25.387,25.387,0,0,0,2.624.042c0.417-.025.835-0.009,1.252-0.015a1.374,1.374,0,0,0,1.03-.232,0.773,0.773,0,0,0,.058-0.087c0.149,0.314.357,0.245,0.588,0.016a1.784,1.784,0,0,1,.457-0.127q4.286-.009,8.572,0a0.241,0.241,0,0,0,.189.071,0.283,0.283,0,0,0,.1-0.069,1.8,1.8,0,0,1,.7-0.049,0.452,0.452,0,0,0,.286-0.129l0.325-.033a0.6,0.6,0,0,0,.667-0.107s0,0,0,.007a0.591,0.591,0,0,1,.154.1,1.439,1.439,0,0,0,.921.186c0.147,0.015.365-.032,0.387,0.2a0.315,0.315,0,0,1-.385.331,6.476,6.476,0,0,0-1.733.2l-0.191-.03a1.383,1.383,0,0,1-.137-0.145,7.735,7.735,0,0,1-2.191.016,0.48,0.48,0,0,0-.6.433c-0.05.409,0.246,0.476,0.521,0.508s0.534,0.006.8,0.017c0.953,0.041,1.912-.029,2.856.068a2.222,2.222,0,0,0,1.309-.178,0.543,0.543,0,0,1,.388-0.034,1.9,1.9,0,0,0,1.668-.063c0.226-.049.506-0.108,0.326-0.507a1.151,1.151,0,0,0-.143-0.083,0.312,0.312,0,0,1,.044.154c-0.63.149-1.122-.469-1.744-0.395a0.2,0.2,0,0,1-.147-0.26,0.426,0.426,0,0,1,.486-0.353,7.441,7.441,0,0,0,1.559-.037,1.959,1.959,0,0,1-.85.358,7.944,7.944,0,0,1,.932-0.11c0.123-.007.246-0.018,0.368-0.036,0.045-.012.09-0.018,0.135-0.029a1.279,1.279,0,0,1-.235-0.166l-0.052-.077a15.52,15.52,0,0,1,3.983-.32c0.4-.014.791,0,1.186,0a0.2,0.2,0,0,1,.052.151s0,0.006,0,.011a0.581,0.581,0,0,0,.075-0.054,0.236,0.236,0,0,0,.05-0.1,0.53,0.53,0,0,0,.093.033,4.925,4.925,0,0,1,2.417-.112c0.7,0.07,1.287-.389,1.952-0.371,1.938,0.055,3.866-.234,5.8-0.192a1.161,1.161,0,0,0,.921-0.2,0.377,0.377,0,0,0,.134-0.228,4.928,4.928,0,0,0,.59-0.012,0.443,0.443,0,0,0,.355-0.015,1.81,1.81,0,0,1,.882.168,1,1,0,0,0,1.093-.239,0.482,0.482,0,0,0,.025-0.045c0.6,0.217.9,0.034,1.141-.7,0.1-.024.2-0.038,0.3-0.057a1.119,1.119,0,0,0,.592.1,0.6,0.6,0,0,0-.042.1c0.152-.113.305,0.059,0.4-0.189a0.091,0.091,0,0,1-.07.018,1.637,1.637,0,0,0,.314-0.156,8.934,8.934,0,0,1,1.225.076,4.954,4.954,0,0,1,.764-0.041c0.255-.045.5-0.155,0.757-0.188a5.8,5.8,0,0,0,.58.081,0.314,0.314,0,0,0,.083.006,1.729,1.729,0,0,0,.9-0.172l0,0a0.407,0.407,0,0,0,.145-0.623,0.5,0.5,0,0,0-.255-0.1h-0.035a1.507,1.507,0,0,0-1.114-.027,2.186,2.186,0,0,1-.777-0.236,3.987,3.987,0,0,0-.785-0.354,1.206,1.206,0,0,0-.745.065,1.01,1.01,0,0,1-.33.191,4.72,4.72,0,0,1-.753-0.186,0.784,0.784,0,0,0,.022-0.114c-0.248-.513-0.775-0.227-1.113-0.48a3.308,3.308,0,0,0-1.487-.057,26.639,26.639,0,0,0-3.821-.515,0.81,0.81,0,0,0-.249-0.006c-0.309.01-.616,0-0.925,0,0.076-.1.158-0.188,0.229-0.288a0.779,0.779,0,0,1,.08.036c0.266,0.052.537,0.044,0.8,0.08,0.081-.006.164-0.008,0.245-0.01,0.529,0.022,1.061.012,1.59,0.025a8.472,8.472,0,0,1,1.983-.065,3.631,3.631,0,0,1,1.045.19,14.642,14.642,0,0,0,2.7.121,4.568,4.568,0,0,1,2.806.154,1.012,1.012,0,0,0,.94.041,4.645,4.645,0,0,1,2.178-.446,5.74,5.74,0,0,1,1.509-.1,17.273,17.273,0,0,1,3.093.119c1.039,0.142,2.089-.026,3.127.149a23.021,23.021,0,0,1,6.769.246c0.934,0.11,1.9-.07,2.857.047a0.5,0.5,0,0,0,.34-0.218,4.589,4.589,0,0,1,1.9.054,20.09,20.09,0,0,0,5.157.507,1.594,1.594,0,0,0,.84.186c1.488,0.242,3.007.14,4.481,0.518,1.179-.083,2.334.344,3.516,0.2a10.337,10.337,0,0,0,2.885.114,0.7,0.7,0,0,0,.322-0.212c0.051-.18-0.153-0.18-0.254-0.25-0.14-.1-0.445.031-0.415-0.277s0.3-.274.508-0.289,0.419,0,.638,0c-0.015-.309-0.512-0.262-0.339-0.6,0.117-.23.387-0.073,0.588-0.091,0.079-.007.159,0,0.238,0a0.236,0.236,0,0,0,.043-0.053l0,0.007-0.047.046c1.169,0.227,2.332.508,3.509,0.655,0.5,0.063.853-.255,0.4-0.883a0.509,0.509,0,0,1,.606-0.323h0a1.319,1.319,0,0,1,.018.154M3.917,19.629C3.912,19.606,3.907,19.58,3.9,19.552L4,19.558Zm1.467-.755a0.294,0.294,0,0,0-.344-0.224c-0.17.04-.163,0.194-0.089,0.343a0.976,0.976,0,0,1-.465-1.254h0a2.8,2.8,0,0,1,.974.106,1.172,1.172,0,0,1,.074.188A7.235,7.235,0,0,0,5.384,18.874ZM9.858,39.2c-0.027-.012-0.054-0.022-0.081-0.031a0.281,0.281,0,0,0,.055-0.035C9.856,39.11,9.893,39.161,9.858,39.2Zm5.151-3.062c-0.127-.015-0.254-0.034-0.38-0.059a0.847,0.847,0,0,0-.225-0.02,1.1,1.1,0,0,0-.236.04,0.309,0.309,0,0,1-.236-0.235,0.8,0.8,0,0,1,1.079.074C15.084,36.041,15.067,36.1,15.009,36.136ZM16.284,4.37a0.976,0.976,0,0,1-.1-0.03,3.72,3.72,0,0,1-1.38-.162,1.455,1.455,0,0,1,.768-0.393s0-.007,0-0.01h0.012l0.623,0.215a1.741,1.741,0,0,0,.352.127,0.5,0.5,0,0,0,.718.045l0.021,0C17.031,4.733,16.649,4.489,16.284,4.37ZM25.4,2.7a0.579,0.579,0,0,0-.432.208l-0.013-.011a0.289,0.289,0,0,0-.151-0.052A1.366,1.366,0,0,0,23.78,3.1c-0.009.043-.016,0.084-0.023,0.123C23.24,3.1,22.7,2.75,22.246,3.294a1.557,1.557,0,0,0-.918-0.718,13.594,13.594,0,0,0-2.873-.336c-0.258-.026-0.515.045-0.818,0a1.316,1.316,0,0,0,.493-0.5c0.057-.047.115-0.091,0.173-0.137a5.435,5.435,0,0,1,.6-0.053,0.54,0.54,0,0,1,.06.039,0.288,0.288,0,0,0,.464.025c0.521-.129,1.041.154,1.562,0.061l0.123,0.012L21.2,1.627a0.585,0.585,0,0,0,.073.135,1.533,1.533,0,0,0,1.286.372,6.17,6.17,0,0,1,2.737.431,0.448,0.448,0,0,1,.5.244A0.433,0.433,0,0,0,25.4,2.7ZM59.109,4.729v0l0,0h0ZM71,4.487L71,4.476l0.01,0.007Zm21.057-.178a0.059,0.059,0,0,1,.011.05,0.425,0.425,0,0,1-.052-0.051h0.041Zm6.327,32.147a2.252,2.252,0,0,1-.253-0.088,2.512,2.512,0,0,0-1.613-.025c-0.217.058-.437,0.1-0.656,0.138a0.405,0.405,0,0,0-.155.128l-0.445-.022a0.42,0.42,0,0,0-.69-0.117l-0.452.1a0.067,0.067,0,0,0-.089,0c-0.033-.039-0.066-0.079-0.1-0.124a1.039,1.039,0,0,0-1.027-.07,1.065,1.065,0,0,1-.171-0.112,1.152,1.152,0,0,0-.477-0.094,0.441,0.441,0,0,1-.192.268l-2.388-.024c-0.252-.154-0.342-0.312.017-0.423a1.145,1.145,0,0,0,.456-0.083l0,0.006,0.963,0.071a4.227,4.227,0,0,1,1.8-.107c1.739,0.476,3.416.025,5.117-.028l0.034-.018a0.923,0.923,0,0,0,.547.349l0.061-.007C98.685,36.4,98.526,36.419,98.381,36.456Zm31.459,1.236c0.27-.474.659-0.272,1.162-0.374A1.265,1.265,0,0,1,129.84,37.692Zm70.3-.084c0,0.014,0,.028,0,0.042h-0.036Zm-9.5.233a0.035,0.035,0,0,0,0,.009h-0.016ZM158.02,4.649l-0.009.01a0.1,0.1,0,0,0,.009-0.016V4.649Zm23,22.473a1.384,1.384,0,0,0,.479.06,2.7,2.7,0,0,1-.494,0,1.876,1.876,0,0,0-.459-0.021,0.319,0.319,0,0,0-.133.077c-0.016-.007-0.032-0.01-0.047-0.018a1.489,1.489,0,0,0-.643-0.013c-0.394.148-.8,0.236-1.2,0.354a3.227,3.227,0,0,1-1.264.123,0.5,0.5,0,0,0,.1-0.4,0.112,0.112,0,0,0-.075-0.1c-0.013-.044-0.027-0.087-0.04-0.131A0.365,0.365,0,0,1,177.311,27,1.764,1.764,0,0,0,177.57,27,0.714,0.714,0,0,1,178,26.743c0.089-.066.185-0.12,0.278-0.178a1.59,1.59,0,0,0,.844-0.095c0.233-.11.41-0.066,0.438,0.265,0.122,0.138.406,0.127,0.359,0.037-0.207-.394-0.161-0.562-0.025-0.648a1.544,1.544,0,0,1,.608-0.043,0.978,0.978,0,0,0,.232-0.018l0.027-.007c0.228,0.351.524,0.263,0.846,0-0.257.292-.823,0.206-0.833,0.8A0.492,0.492,0,0,0,181.019,27.121Zm8.284-1.97a0.775,0.775,0,0,0,.292.314,2.115,2.115,0,0,1-.233.076c-0.038-.262-0.163-0.256-0.309-0.186A1.889,1.889,0,0,0,189.3,25.151Zm-4.121.146,0.006,0a1.057,1.057,0,0,0-.03.178,0.743,0.743,0,0,0,.725.271,4.576,4.576,0,0,0,2.339-.474c0.026-.023.047-0.048,0.07-0.073a0.487,0.487,0,0,0,.621.235l-0.05.029a0.387,0.387,0,0,0,.149.131,0.866,0.866,0,0,0-.208.048,5.54,5.54,0,0,0-.566.27l-0.969.1a0.782,0.782,0,0,1-.2-0.165,2.853,2.853,0,0,1-.686-0.041,0.851,0.851,0,0,0-.23.051c-0.391.145-.828-0.182-1.216,0a0.666,0.666,0,0,0-.585-0.649A0.571,0.571,0,0,1,185.182,25.3Zm-2.007,4.268a0.26,0.26,0,0,1-.3-0.212,0.324,0.324,0,0,1,0-.056,3.581,3.581,0,0,1,.574-0.35,0.387,0.387,0,0,1,.085.166A0.366,0.366,0,0,1,183.175,29.566Zm10.992-2.574a3.463,3.463,0,0,1-1.051.188c-0.159,0-.319,0-0.478,0a5.662,5.662,0,0,0-1.78.19,0.6,0.6,0,0,0-.343.138,1.032,1.032,0,0,0-.059.155,2.887,2.887,0,0,0-2.309.163,0.537,0.537,0,0,0-.141.235c0,0.021.006,0.036,0.008,0.055a0.622,0.622,0,0,0-.537-0.209,6.293,6.293,0,0,1-2.648-.187c-0.482.029-.956-0.069-1.434-0.086a0.582,0.582,0,0,0-.257,0,1.275,1.275,0,0,0-.034-1.109,0.569,0.569,0,0,0,.337.575,4.288,4.288,0,0,0,1.868.2,2.77,2.77,0,0,1,1.328-.063,0.955,0.955,0,0,0,.351-0.034,2.582,2.582,0,0,1,1.088.111c0.377,0.017.736-.171,1.115-0.133h0.252c0.344,0.03.688,0,1.032,0l0.21,0a0.461,0.461,0,0,1,.1-0.242c0.123,0.017.246,0.023,0.369,0.032a3.388,3.388,0,0,0,1.373,0,3.182,3.182,0,0,1,1.688-.1A0.094,0.094,0,0,1,194.167,26.992Zm4.512,1.888a0,0,0,0,0,0,0l0,0h0Zm6.587-2.86a9.813,9.813,0,0,1-4.121.3,3.776,3.776,0,0,0-.954-0.022,0.544,0.544,0,0,1,.381-0.316,2.031,2.031,0,0,0,.586-0.186l1.205-.048c0.809,0.013,1.618-.037,2.429.039,0.08,0.02.157,0.039,0.239,0.055,0.078,0.038.2-.077,0.24,0.077a0.3,0.3,0,0,1-.036.078ZM206.235,26a0.877,0.877,0,0,1,1.119.013Zm7.094,0.279a0.164,0.164,0,0,0-.011.016,3.372,3.372,0,0,1-1.468,0c-0.541-.012-1.083,0-1.626-0.006a4.388,4.388,0,0,0-.466.015,2.191,2.191,0,0,1-.528.052,0.315,0.315,0,0,1-.359-0.183,0.377,0.377,0,0,0,.512.065,2.442,2.442,0,0,1,1.592-.334,0.439,0.439,0,0,0,.3-0.116c0.019,0.017.035,0.036,0.055,0.052a1.948,1.948,0,0,0,.42.222,3.657,3.657,0,0,0,.709.044c0.115,0,.23,0,0.346,0,0.029,0,.058,0,0.087-0.006a0.6,0.6,0,0,0,.5.1l0.064,0A0.5,0.5,0,0,0,213.329,26.282Zm2.127,0.163a0.21,0.21,0,0,1-.143-0.134,2.073,2.073,0,0,0-1.351-.2,2.479,2.479,0,0,0-.333.024l-0.16-.112a15.421,15.421,0,0,1,1.735-.108C215.609,25.992,215.657,26.166,215.456,26.445Zm6.2,0.827a0.754,0.754,0,0,0-1.212.015,0.918,0.918,0,0,0-.138-0.1c0.143-.1.342-0.168,0.216-0.458,0.361,0,.722,0,1.083.015,0.146,0,.363-0.054.4,0.149C222.056,27.148,221.739,27.1,221.656,27.272Zm39.166-17.5c-0.092-.026-0.227-0.021-0.228-0.15a0.348,0.348,0,0,1,.215-0.191l0.024-.03a0.114,0.114,0,0,0,.011-0.014l0.029-.037a0.456,0.456,0,0,0,.07.123,1.487,1.487,0,0,0,1.1.306,7.309,7.309,0,0,1,1.308.058,0.353,0.353,0,0,0-.116.216,0.072,0.072,0,0,0-.112-0.021l-1.425-.1A2.116,2.116,0,0,0,260.822,9.768Zm1.3,1.736a1.741,1.741,0,0,1,1.81-.4,0.6,0.6,0,0,1-.5.553A1.882,1.882,0,0,1,262.122,11.5Zm11.353,11.463c0.536-.012.94-0.122,1.195,0.408A1.622,1.622,0,0,1,273.475,22.968Zm4.391,0.309a0.427,0.427,0,0,0-.119-0.13,2.006,2.006,0,0,0-.849-0.034,1.143,1.143,0,0,1-1.1-.483,2.043,2.043,0,0,0,.612.05,0.9,0.9,0,0,1,.11-0.02,6.4,6.4,0,0,0,1.457.129,0.868,0.868,0,0,0,.175.215,0.369,0.369,0,0,0,.528-0.018,0.363,0.363,0,0,0,.167.314A0.756,0.756,0,0,0,277.866,23.277Zm2.593-2.617,0.025-.006c0,0.01.011,0.019,0.015,0.028Zm2.23,0.38h0l0.049-.066ZM10.881,4.433a1.161,1.161,0,0,0,1.3-.861c-0.21-.82-0.683-0.821-1.258-0.5a1.013,1.013,0,0,0-.38,1.115A0.251,0.251,0,0,0,10.881,4.433ZM3.515,39.12c0.137-.037.366,0.046,0.366-0.189s-0.232-.153-0.368-0.2a0.885,0.885,0,0,0-.781.035L3.038,38.94C3.142,39.182,3.285,39.3,3.515,39.12Zm-1.759-8.8-0.644-.376-0.162.026A0.68,0.68,0,0,0,1.756,30.315ZM279.512,15.8l-0.167,0a32.478,32.478,0,0,1-3.677.133,0.759,0.759,0,0,0-.585.188c-0.071.116-.026,0.294,0.06,0.3,0.448,0.036.808,0.61,1.313,0.269l0.473,0h0a0.937,0.937,0,0,0,.813.193,2.874,2.874,0,0,1,1.767.15l0.079,0.011,0.08,0,2.4-.012c0.006-.053.011-0.106,0.015-0.159,0.72-.474,1.605-0.4,2.561-0.953a6.245,6.245,0,0,1-1.964-.085,3.344,3.344,0,0,0-1.9.12l0.007,0.016a4.625,4.625,0,0,0-1.28-.167h0Zm-5.95,11.109a2.093,2.093,0,0,0,1.126.536A1.106,1.106,0,0,0,273.562,26.914Zm6.589,0.9-0.641,0a0.373,0.373,0,0,0,.459.354C280.2,28.158,280.212,28.007,280.151,27.811Zm-5.305-.358q0,0.084.009,0.167l0.8,0.009A0.986,0.986,0,0,0,274.846,27.453Zm10.889-1.805c-0.839-.844-1.713-0.412-2.492-0.564-0.194.222,0.094,0.249,0.123,0.381l-0.006.039a0.6,0.6,0,0,0,.483.158l0.5-.014h1.394Zm-12.709,2.113c-0.1.373,0.238,0.376,0.471,0.4,0.664,0.069,1.328.129,1.993,0.192a5.059,5.059,0,0,1,1.792.161l0.067-.007h0.066a0.582,0.582,0,0,0,.254-0.19c0.045-.259-0.19-0.194-0.3-0.241-0.871-.366-1.831-0.051-2.7-0.432a1.847,1.847,0,0,1-1-.251A0.487,0.487,0,0,0,273.026,27.761Zm9.374-2.284a0.552,0.552,0,0,0,.8.025A0.75,0.75,0,0,0,282.4,25.476Zm3.349-4.04c1.04-.154,2.039.573,3.082,0.088-0.768-.373-1.628.006-2.4-0.361A0.637,0.637,0,0,0,285.749,21.436Zm-1.268-1c0.211,0.008.47,0.072,0.331-.342l-0.473-.186C284.064,20.191,284.41,20.267,284.481,20.435ZM251.944,3.956a1.4,1.4,0,0,0,.565-0.35l-1.144-.036-0.446,0L250.1,3.61a1.2,1.2,0,0,0,.627.378,0.228,0.228,0,0,1,.005-0.035C251.134,4,251.547,3.88,251.944,3.956Zm2.984,0.556h0L252.2,4.444l-0.05.073-2.342-.059q-0.027-.067-0.051-0.135l-0.3-.016a16.467,16.467,0,0,0-2.782-.088,0.349,0.349,0,0,1-.129.07,0.223,0.223,0,0,0-.3-0.006L244.31,4.3c0.016,0.109.033,0.218,0.05,0.327l1.5,0.19s0,0.007,0,.011c0.463,0.615,1.053.321,1.609,0.283a7.961,7.961,0,0,1,1.879.086,1.042,1.042,0,0,0,.234.056,0.771,0.771,0,0,0,.454-0.056,0.923,0.923,0,0,0,.161.14,0.854,0.854,0,0,0,.215.09,0.9,0.9,0,0,0,.421.023,1.283,1.283,0,0,1-.57-0.269c0.6,0.194,1.13-.5,1.744-0.191,0,0,0,.005,0,0.009a1.252,1.252,0,0,1-.164.177c0.03,0,.059-0.007.09-0.006a0.529,0.529,0,0,0,.152-0.117,0.352,0.352,0,0,0,.432-0.077,1.694,1.694,0,0,1,.156.085,1.06,1.06,0,0,0,.962.084c0.07-.021.14-0.038,0.21-0.055,0.21-.083.435-0.014,0.644-0.087,0.028-.015.058-0.028,0.087-0.041a0.455,0.455,0,0,0,.658-0.135l0.01-.011a0.7,0.7,0,0,0,.046.094,0.814,0.814,0,0,0,.6-0.061,3.823,3.823,0,0,0,1.737,0,0.5,0.5,0,0,0,.045.077,0.519,0.519,0,0,0,.768-0.069c0.014,0,.029,0,0.043-0.006a0.756,0.756,0,0,0-.052.084,1.844,1.844,0,0,0,1.949.08,0.059,0.059,0,0,0,.008-0.006,5.488,5.488,0,0,0,.653.186,4.871,4.871,0,0,0,1.276,0c0.949-.477,1.963.348,3.137-0.227a20.232,20.232,0,0,0-3.934-.312,8.668,8.668,0,0,0-1.921-.016l-1.459-.163-0.47.03h0l-1.155-.046a0.082,0.082,0,0,0-.146,0,2.37,2.37,0,0,1-.814.029h0Zm-7.38.49a0.8,0.8,0,0,1-.021-0.154c0.639,0.152,1.314-.212,1.938.166Zm5.6-1.051a0.571,0.571,0,0,0,.826-0.028L253.3,3.785ZM255.007,4.1c0.189-.153-0.092-0.209-0.082-0.338-0.112.05-.293,0.063-0.2,0.267A0.268,0.268,0,0,0,255.007,4.1Zm-0.082-.339h0ZM280.306,20.1h0ZM272.3,15.6a1.408,1.408,0,0,0,.946.182c0.132-.117.024-0.223-0.012-0.332l-0.455-.034A0.541,0.541,0,0,0,272.3,15.6Zm0.612-3.942c-0.48-.41-1.081-0.156-1.6-0.363C271.743,11.962,272.374,11.543,272.909,11.653ZM57.027,1.25a1.314,1.314,0,0,0-.961-0.175h0A2.309,2.309,0,0,1,54.926.915c-0.257-.165-0.26.156-0.305,0.339h1.446ZM246.55,3.8h0a12.208,12.208,0,0,0,2.882-.188L246.1,3.243l0,0c-0.445.329-.988-0.02-1.51,0.28A3.853,3.853,0,0,0,246.55,3.8ZM266.842,12a5.905,5.905,0,0,0,1.607.127c0.195-.039.315-0.072,0.138-0.3A4.2,4.2,0,0,0,266.842,12Zm-1.6,15.083c-0.2.056-.47-0.041-0.355,0.368a17.068,17.068,0,0,1,3.945.119A5.511,5.511,0,0,0,265.237,27.087Zm-7.75.872c-0.37.021-.741,0.016-1.112,0.022h0l-0.169-.171a0.188,0.188,0,0,0-.307.015c-0.305.3-.811,0.039-1.086,0.472a1.355,1.355,0,0,1,.755.224l0.8-.179a3.477,3.477,0,0,1,1.284.182,0.554,0.554,0,0,0,.244-0.425C257.831,27.87,257.647,27.95,257.487,27.959ZM87.081,3.232l0.16,0,0.963,0c0-.029,0-0.058.007-0.087l0.02,0a0.914,0.914,0,0,0,.614-0.1,1.772,1.772,0,0,0-1.284-.352,1.241,1.241,0,0,0-1.187-.018A2.136,2.136,0,0,0,87.081,3.232ZM241.757,3.15a2.544,2.544,0,0,1-1.708-.362l0,0.007a2.407,2.407,0,0,0-.716.258,1.686,1.686,0,0,0-1,.157h0a7.374,7.374,0,0,0-1.9-.158,1.9,1.9,0,0,1-1.4.128,11.331,11.331,0,0,0-2.051-.058c-0.132,0-.293-0.041-0.326.144-0.046.253,0.147,0.254,0.3,0.294,0.687,0.176,2.529.283,2.611,0.381a3.753,3.753,0,0,0,2.023.07,4.4,4.4,0,0,0,2.264-.039,4.377,4.377,0,0,1,.592-0.213,1.169,1.169,0,0,0,1.261.654,0.893,0.893,0,0,0,.522-0.111,0.747,0.747,0,0,0,.37-0.535L244,3.772c-0.054-.562-0.447-0.5-0.786-0.529a1.318,1.318,0,0,1-.879.177A0.811,0.811,0,0,1,241.757,3.15Zm-10.6.274a0.308,0.308,0,0,0,.456-0.215l0.009-.336a0.368,0.368,0,0,0-.159-0.006C230.9,3.214,230.9,3.214,231.153,3.423Zm29.231,20.784c-0.182.271-.022,0.419,0.16,0.56a13.619,13.619,0,0,0,3.036.557c0.267,0.151.573-.025,0.839,0.13l1.414,0.008c0.21-.111.247-0.226,0.1-0.468-0.355-.569-0.915-0.323-1.371-0.484a7.646,7.646,0,0,1-1.67-.062,1.9,1.9,0,0,1-1.209-.059h0l-0.161-.185-0.657.032h0Zm-3.533.376a0.628,0.628,0,0,0-.831-0.313l0.345,0.3Zm11.4,0.541a1.935,1.935,0,0,0,1.463-.173A3.267,3.267,0,0,0,268.249,25.124Zm-14.238,2.993c-0.124.025-.251,0.035-0.377,0.051h0l-1.285,0c0.314,0.363.816-.014,1.128,0.358l0.485-.008c0.052,0,.1,0,0.154.01,0.12-.094.308-0.167,0.228-0.376C254.279,27.986,254.129,28.094,254.011,28.117ZM89.522,2.781c0.1-.073.039-0.192-0.035-0.276a0.621,0.621,0,0,0-.489.17A0.352,0.352,0,0,0,89.522,2.781ZM199.76,40.015c-0.409-.081-0.857-0.27-1.085.356l0.488,0a6.829,6.829,0,0,0,2.566,0h0C201.135,39.819,200.415,40.144,199.76,40.015Zm29.225-4.142M168.625,2.868a2.082,2.082,0,0,0,1.4-.519l-2.2.156,0.012,0.017L165.9,2.516c0,0.058,0,.117,0,0.175h0c-0.138.12-.032,0.235,0.005,0.352C166.805,2.9,167.733,3.244,168.625,2.868Zm-21.8.518a12.7,12.7,0,0,1,1.709.021c0.055-.6-0.279-0.61-0.647-0.5a1.018,1.018,0,0,1-.975,0l-0.465-.024C146.294,3.3,146.54,3.452,146.828,3.386ZM106.493,3.12a0.265,0.265,0,0,0,.355-0.067c0-.062,0-0.125,0-0.187l-0.326-.341c-0.228.005-.536-0.048-0.533,0.314C105.992,3.145,106.322,3.02,106.493,3.12Zm31.443,0.468-0.818,0A0.617,0.617,0,0,0,137.936,3.588ZM215.822,1.63a5.853,5.853,0,0,0,2.991,0h-2.991Zm2.195,1.417c0.666,0,1.333-.011,2-0.019a1.3,1.3,0,0,0-.836-0.155A2.525,2.525,0,0,1,217.8,2.69a0.54,0.54,0,0,0-.154.018C217.533,3.14,217.83,3.047,218.017,3.047Zm36.4,21.366h1.222l-0.562-.377A3.284,3.284,0,0,0,253.269,24,1.009,1.009,0,0,0,254.421,24.414Zm-12.681.511L244,24.974a0.555,0.555,0,0,1-.073.212l0.038,0a0.547,0.547,0,0,0,.4-0.229c-0.034-.835-0.5-0.387-0.834-0.356-0.529.3-.939-0.418-1.458-0.215C242.528,25,241.7,24.634,241.74,24.925Zm9.185-.08a0.5,0.5,0,0,1-.217-0.072,0.2,0.2,0,0,1-.121.01,0.543,0.543,0,0,0-.538.133l0.056,0.027c0.238,0.874.961,0.5,1.457,0.655,0.272,0.086.625-.054,0.94,0.047h0c0.222-.146.421,0.252,0.645,0.034l2.058,0.132c0.013-.111.025-0.223,0.038-0.334a0.479,0.479,0,0,0-.648-0.142c-0.512-.3-1.116-0.087-1.634-0.357C252.293,24.806,251.594,25.031,250.925,24.845Zm-0.843,1.683a0.215,0.215,0,0,0,.34.032l0.8,0a2.681,2.681,0,0,0,.967-0.007c0-.053-0.009-0.1-0.017-0.157A5.3,5.3,0,0,0,250.082,26.528Zm-92.527-23.3c0.372,0.015.745,0.005,1.117,0.006,0.308-.064.616-0.124,0.923-0.192,0.119-.026.3-0.039,0.227-0.243-0.055-.157-0.227-0.1-0.353-0.105a5,5,0,0,1-1.879.177c-0.208.031-.579-0.133-0.566,0.238C157.036,3.45,157.367,3.225,157.555,3.232Zm-6.284,0,0.742-.34H150.97C150.774,3.328,151.106,3.186,151.271,3.228Zm1.964-.151a0.843,0.843,0,0,0-.733-0.066A0.47,0.47,0,0,0,153.235,3.077Zm11.535-.024,0.152-.354-0.643-.023-1.115.008c-0.268.05-.623-0.08-0.73,0.427l1.21-.06A1.647,1.647,0,0,0,164.77,3.053ZM130.82,3.1a0.317,0.317,0,0,0,.1-0.206,1.019,1.019,0,0,0-.948-0.2,1.407,1.407,0,0,0-.238-0.009h0C129.964,3.246,130.43,3.059,130.82,3.1Zm2.334-.142a0.5,0.5,0,0,0-.526-0.271h0c-0.18.311-.55,0.045-0.8,0.351A3.652,3.652,0,0,0,133.154,2.958ZM233.754,27.8c-0.133.128-.159,0.317,0.1,0.355l0.179-.161C234,27.822,233.958,27.6,233.754,27.8Zm3.015,0.379,0.459,0.011a0.461,0.461,0,0,0,.667-0.011l0.147-.014c-0.626-.589-1.387-0.061-2.054-0.311l-0.03.316,0.317,0.005A0.346,0.346,0,0,0,236.769,28.179Zm8.2-2.338c-0.376.45-.94-0.03-1.332,0.337l1.635,0.019Zm2.715,2.148a0.2,0.2,0,0,0-.315-0.006l-0.979,0a1.363,1.363,0,0,0-.956.009c-0.161.135-.382,0.252-0.126,0.515a1.189,1.189,0,0,1,.754-0.14,5,5,0,0,1,1.319.084C247.688,28.5,247.785,28.305,247.689,27.989Zm-5.469,2.329c0.069-.174.216-0.347,0.008-0.526a2.214,2.214,0,0,1-1.285.175c-0.4.06-.446,0.228-0.153,0.528a0.188,0.188,0,0,0,.312.007h0.481Zm7.728-3.787a0.426,0.426,0,0,0-.548-0.188,3.621,3.621,0,0,1-1.72-.153,0.4,0.4,0,0,0-.464.162l-0.656.032,0.166,0.172a9.38,9.38,0,0,0,2.052.177,0.614,0.614,0,0,0,.356-0.175A1.237,1.237,0,0,0,249.948,26.531ZM88.284,41.693c0.009-.144-0.054-0.2-0.137-0.187a0.541,0.541,0,0,0-.175.125m120.509-4.315a0.553,0.553,0,0,0-.651.18A0.693,0.693,0,0,0,208.481,37.315Zm-26.338,1.473c-0.262-.017-0.574.047-0.341,0.505l0.48,0.007C182.353,39.087,182.5,38.811,182.143,38.788Zm53.328-8.1a0.529,0.529,0,0,0,.485.173c0.41-.231.876,0.058,1.288-0.17l0.64-.007h0c0.474-.164,1.012.324,1.452-0.178q-0.083-.357-0.164-0.715c-0.195.007-.48-0.22-0.563,0.095-0.147.561-.534,0.325-0.821,0.363a2.493,2.493,0,0,1-.7-0.1c-0.054-.078-0.109-0.078-0.163,0-0.214.066-.429-0.508-0.642,0l-0.643.177C235.582,30.443,235.527,30.563,235.471,30.684ZM56.874,39.29l-0.1-.046a2.2,2.2,0,0,1-.96-0.2,4.244,4.244,0,0,0-.779.23c-0.441-.032-0.881.073-1.322,0.013a0.5,0.5,0,0,1-.116.051l-0.109-.081a0.916,0.916,0,0,0-.635.212l-0.168.161c-0.066.7,0.475,0.637,0.8,0.693a9.944,9.944,0,0,0,1.623.023,1.055,1.055,0,0,1-.31-0.339c-0.032-.219.164-0.2,0.272-0.177,0.582,0.118,1.14-.295,1.727-0.078a0.248,0.248,0,0,0,.359-0.2A0.764,0.764,0,0,0,56.874,39.29Zm149.678-9.309c0-.125,0-0.25,0-0.374l-2.4-.033-0.3.055a0.432,0.432,0,0,0-.154.191,0.694,0.694,0,0,0-.007.261,0.8,0.8,0,0,0,.793.633,1.474,1.474,0,0,1,1.194-.485A0.957,0.957,0,0,0,206.552,29.981ZM219.569,28.7a0.925,0.925,0,0,0-1.131-.006Zm0.634,0,0.807,0a1.439,1.439,0,0,1,.022-0.147A0.921,0.921,0,0,0,220.2,28.7Zm20.1-.347h0l0.631,0.014c0.169-.066.387-0.105,0.17-0.384-0.448,0-.9.006-1.344,0-0.232,0-.364.072-0.27,0.363A0.55,0.55,0,0,0,240.305,28.357Zm3.405-.01c0.19-.026.556,0.173,0.437-0.351-0.051,0-.1,0-0.154-0.006a3.072,3.072,0,0,1-1.839.007c-0.386-.035-0.7.045-0.241,0.525l0.311-.008A3.068,3.068,0,0,1,243.71,28.346ZM173.457,38.4l-1.478.007a1.17,1.17,0,0,1,.021.167A2.607,2.607,0,0,0,173.457,38.4Zm5.61,0.7a0.839,0.839,0,0,1-.145.022,0.849,0.849,0,0,0,1.057-.022h-0.912Zm18.7-5.4a1.093,1.093,0,0,0-.955.108c-0.02.035-.04,0.069-0.061,0.1-0.071.432-.385,0.33-0.638,0.361,0.007,0.108.015,0.216,0.022,0.325a24.651,24.651,0,0,0,3.318-.167,6.389,6.389,0,0,1-1.58-.7Zm2.8,0.181c-0.142-.116-0.293.11-0.343,0.275a0.2,0.2,0,0,0,.219.274,6.007,6.007,0,0,0,2.22-.172C201.976,33.907,201.226,34.421,200.569,33.884Zm1.1-3.759a0.4,0.4,0,0,0,.206-0.5,1.184,1.184,0,0,1-.146-0.046,6.517,6.517,0,0,1-.806-0.146v0l-1.257.19,0.162,0.319a0.537,0.537,0,0,0,.619.043L200.606,30A2.33,2.33,0,0,0,201.667,30.125Zm24.669-1.511c-0.127.372,0.156,0.23,0.3,0.267h0c0.074-.188.15-0.411-0.053-0.522C226.445,28.284,226.373,28.5,226.336,28.614ZM97.2,41.622l-0.16.175,1.774-.005C98.277,41.7,97.773,41.229,97.2,41.622Zm71.735-3.215a1.939,1.939,0,0,0,1.623-.008C170.013,38.152,169.474,38.521,168.932,38.407Zm2.91-.005c-0.327-.378-0.652-0.018-0.977,0A0.805,0.805,0,0,0,171.842,38.4Zm-6.923,0a0.786,0.786,0,0,0,.993,0Zm3.716,0a1,1,0,0,0-.806.163A1.015,1.015,0,0,0,168.635,38.4ZM191.7,31.317a4.031,4.031,0,0,0-.883.238l-0.032.048a10.656,10.656,0,0,0,4.19,0l-0.811-.047a6.322,6.322,0,0,0-1.927-.285A0.548,0.548,0,0,0,191.7,31.317Zm17.622,0.759,0.616,0.055a0.374,0.374,0,0,0,.142-0.017C209.854,31.646,209.584,31.981,209.325,32.076Zm-9.52-.847,1.13-.021c0-.055-0.007-0.11-0.01-0.165A1.57,1.57,0,0,0,199.805,31.229Zm6.914,0.177-0.484,0-0.331.178A0.474,0.474,0,0,0,206.719,31.406Zm-1.782,0a1.486,1.486,0,0,0,.966.182C205.66,31,205.257,31.479,204.937,31.405ZM95.317,40.182a3.2,3.2,0,0,0-2.433-.251C93.67,40.448,94.5,40.152,95.317,40.182Zm59.8-1.772-1.28-.028C154.257,39.017,154.687,38.842,155.121,38.41Zm32.307-3.957c-0.078.151-.343,0.36,0.083,0.36,0.561,0,1.122-.008,1.683-0.013l0.288-.322-1.913-.048A1.192,1.192,0,0,0,187.428,34.452Zm16.555-3.061,0.173,0a2.806,2.806,0,0,0-.687-0.079C203.64,31.342,203.814,31.359,203.983,31.392Zm33.328,0.372a6.1,6.1,0,0,1,2.346.171l0.48,0.006c0.218,0.279.433,0.1,0.647-.008l0.784-.005h0a11.666,11.666,0,0,0-3.428-.343,4.471,4.471,0,0,1-2.177-.18l-0.387.352C236.222,31.756,236.769,31.724,237.311,31.763Z"/>
</svg>
