<?xml version="1.0" encoding="UTF-8"?> <svg xmlns="http://www.w3.org/2000/svg" id="Group_1_copy" data-name="Group 1 copy" width="136" height="44" viewBox="0 0 136 44"><defs><style> .cls-1 { fill: #fff; } .cls-1, .cls-2 { fill-rule: evenodd; } .cls-2 { fill: #ffaa01; } </style></defs><path id="Fabli" class="cls-1" d="M177.948,39.292V35.786a0.552,0.552,0,0,0-.554-0.553H162.449a0.55,0.55,0,0,0-.553.553V66.968a0.551,0.551,0,0,0,.553.554h4.244a0.551,0.551,0,0,0,.553-0.554V53.914a0.2,0.2,0,0,1,.231-0.231h5.858a0.55,0.55,0,0,0,.553-0.553V49.578a0.55,0.55,0,0,0-.553-0.553h-5.858a0.2,0.2,0,0,1-.231-0.231V40.076a0.2,0.2,0,0,1,.231-0.231h9.917a0.552,0.552,0,0,0,.554-0.553h0Zm9.686,4.29a8.38,8.38,0,0,0-5.6,1.891,6.962,6.962,0,0,0-2.468,5.028,0.447,0.447,0,0,0,.507.553h4.475a0.537,0.537,0,0,0,.6-0.553,2.751,2.751,0,0,1,.784-1.684,2.235,2.235,0,0,1,1.615-.623,2.6,2.6,0,0,1,2.076.992,4,4,0,0,1,.83,2.652v1.2a0.2,0.2,0,0,1-.231.231h-2.4a11,11,0,0,0-6.573,1.753q-2.423,1.754-2.422,5.9,0,3.967,2.006,5.466a7.536,7.536,0,0,0,4.636,1.5,5.844,5.844,0,0,0,4.7-1.891,0.147,0.147,0,0,1,.185-0.092,0.187,0.187,0,0,1,.092.184v0.876a0.551,0.551,0,0,0,.553.554h4.244a0.551,0.551,0,0,0,.553-0.554V51.285a7.3,7.3,0,0,0-2.26-5.581,8.279,8.279,0,0,0-5.9-2.122h0Zm-0.692,19.88a2.6,2.6,0,0,1-1.891-.715,2.857,2.857,0,0,1-.738-2.145,3.115,3.115,0,0,1,.969-2.468,3.7,3.7,0,0,1,2.537-.853h2.4a0.2,0.2,0,0,1,.231.231v2.629a3,3,0,0,1-1.061,2.445,3.728,3.728,0,0,1-2.445.876h0Zm22.463-19.88a6.5,6.5,0,0,0-2.1.369,5.652,5.652,0,0,0-1.961,1.153,0.286,0.286,0,0,1-.254.161,0.142,0.142,0,0,1-.115-0.161V35.786a0.55,0.55,0,0,0-.553-0.553H200.18a0.552,0.552,0,0,0-.554.553V66.968a0.552,0.552,0,0,0,.554.554h4.244a0.551,0.551,0,0,0,.553-0.554V66.414a0.185,0.185,0,0,1,.092-0.184,0.152,0.152,0,0,1,.185.046,5.716,5.716,0,0,0,4.151,1.614,5.922,5.922,0,0,0,4.8-2.03,8.181,8.181,0,0,0,1.707-5.443V51.054a8.071,8.071,0,0,0-1.73-5.489,6,6,0,0,0-4.774-1.983h0Zm1.2,7.888V60a3.484,3.484,0,0,1-.785,2.376,2.619,2.619,0,0,1-2.075.9,2.542,2.542,0,0,1-1.845-.715,3.26,3.26,0,0,1-.923-1.914V50.823a3.264,3.264,0,0,1,.923-1.914,2.545,2.545,0,0,1,1.845-.715,2.619,2.619,0,0,1,2.075.9,3.485,3.485,0,0,1,.785,2.376h0Zm9.548,16.052H224.4a0.552,0.552,0,0,0,.554-0.554V35.786a0.552,0.552,0,0,0-.554-0.553h-4.243a0.55,0.55,0,0,0-.554.553V66.968a0.551,0.551,0,0,0,.554.554h0Zm11.623-26.8a3.127,3.127,0,0,0,2.306-.922,3.186,3.186,0,0,0,.923-2.352,3.231,3.231,0,0,0-.9-2.353,3.109,3.109,0,0,0-2.329-.922,3.276,3.276,0,1,0,0,6.55h0Zm-2.076,26.8h4.244a0.551,0.551,0,0,0,.553-0.554V44.5a0.55,0.55,0,0,0-.553-0.553H229.7a0.55,0.55,0,0,0-.553.553V66.968a0.551,0.551,0,0,0,.553.554h0Z" transform="translate(-161.906 -28)"></path><path class="cls-2" d="M291.556,69.249h-0.645a2.982,2.982,0,0,1-2.578-1.513l-0.046-.046a5.758,5.758,0,0,0-10.035,0l-0.046.046a2.891,2.891,0,0,1-2.577,1.513,2.961,2.961,0,0,1-2.946-2.934V62.373a35.7,35.7,0,0,0-17.17-30.485,19.18,19.18,0,0,1,5.109-1.1,33.256,33.256,0,0,1,16.2,28.423,2.468,2.468,0,0,0,1.888,2.43,2.545,2.545,0,0,0,2.854-1.238,21.993,21.993,0,0,0,2.578-11.736A22.233,22.233,0,0,0,262.97,27.991,22.015,22.015,0,1,0,262.1,72h0.046l1.565-.046a1.424,1.424,0,0,0,1.335-1.192,40.02,40.02,0,0,0,.322-4.722,35.891,35.891,0,0,0-16.479-30.073,18.469,18.469,0,0,1,3.637-2.659c0.046,0.046.138,0.046,0.184,0.092a33.065,33.065,0,0,1,17.216,28.973v3.942A5.7,5.7,0,0,0,275.629,72a5.809,5.809,0,0,0,5.017-2.934l0.046-.046a2.891,2.891,0,0,1,2.578-1.513,2.839,2.839,0,0,1,2.577,1.513l0.047,0.046A5.714,5.714,0,0,0,290.911,72h0.645A1.375,1.375,0,1,0,291.556,69.249Zm-10.173-20.4a18.821,18.821,0,0,1-1.842,9.4,35.969,35.969,0,0,0-13.579-27.093A19.4,19.4,0,0,1,281.383,48.849ZM262.371,62.465a33.068,33.068,0,0,1-16.157-8.848c-0.736-.734-1.427-1.467-2.071-2.246l-1.381-1.834a19.822,19.822,0,0,1,.736-4.951,37.113,37.113,0,0,0,3.315,3.8,36.336,36.336,0,0,0,14.5,8.8A34.509,34.509,0,0,1,262.371,62.465Zm0.047,6.785H262.1A19.291,19.291,0,0,1,243.36,54.625c0.277,0.321.6,0.642,0.921,0.963a35.766,35.766,0,0,0,18.32,9.764v0.733C262.556,67.095,262.51,68.2,262.418,69.249Zm-2.21-15.357a33.367,33.367,0,0,1-11.416-7.427,31.986,31.986,0,0,1-3.774-4.492,1.09,1.09,0,0,0-.323-0.321,17.827,17.827,0,0,1,2.3-3.621A33.223,33.223,0,0,1,260.208,53.892ZM298,70.625a1.381,1.381,0,1,1-1.381-1.375A1.378,1.378,0,0,1,298,70.625Z" transform="translate(-161.906 -28)"></path></svg> 